HIERARCHY
ROOT Hips
{
	OFFSET 0.000000 0.000000 0.000000
	CHANNELS 6 Xposition Yposition Zposition Zrotation Yrotation Xrotation 
	JOINT LHipJoint
	{
		OFFSET 0.000000 0.000000 0.000000
		CHANNELS 3 Zrotation Yrotation Xrotation
		JOINT LeftUpLeg
		{
			OFFSET 1.363060 -1.794630 0.839290
			CHANNELS 3 Zrotation Yrotation Xrotation
			JOINT LeftLeg
			{
				OFFSET 2.448110 -6.726130 0.000000
				CHANNELS 3 Zrotation Yrotation Xrotation
				JOINT LeftFoot
				{
					OFFSET 2.562200 -7.039590 0.000000
					CHANNELS 3 Zrotation Yrotation Xrotation
					JOINT LeftToeBase
					{
						OFFSET 0.157640 -0.433110 2.322550
						CHANNELS 3 Zrotation Yrotation Xrotation
						End Site
						{
							OFFSET 0.000000 0.000000 0.000000
						}
					}
				}
			}
		}
	}
	JOINT RHipJoint
	{
		OFFSET 0.000000 0.000000 0.000000
		CHANNELS 3 Zrotation Yrotation Xrotation
		JOINT RightUpLeg
		{
			OFFSET -1.305520 -1.794630 0.839290
			CHANNELS 3 Zrotation Yrotation Xrotation
			JOINT RightLeg
			{
				OFFSET -2.542530 -6.985550 0.000000
				CHANNELS 3 Zrotation Yrotation Xrotation
				JOINT RightFoot
				{
					OFFSET -2.568260 -7.056230 0.000000
					CHANNELS 3 Zrotation Yrotation Xrotation
					JOINT RightToeBase
					{
						OFFSET -0.164730 -0.452590 2.363150
						CHANNELS 3 Zrotation Yrotation Xrotation
						End Site
						{
							OFFSET 0.000000 0.000000 0.000000
						}
					}
				}
			}
		}
	}
	JOINT LowerBack
	{
		OFFSET 0.000000 0.000000 0.000000
		CHANNELS 3 Zrotation Yrotation Xrotation
		JOINT Spine
		{
			OFFSET 0.028270 2.035590 -0.193380
			CHANNELS 3 Zrotation Yrotation Xrotation
			JOINT Spine1
			{
				OFFSET 0.056720 2.048850 -0.042750
				CHANNELS 3 Zrotation Yrotation Xrotation
				JOINT Neck
				{
					OFFSET 0.000000 0.000000 0.000000
					CHANNELS 3 Zrotation Yrotation Xrotation
					JOINT Neck1
					{
						OFFSET -0.054170 1.746240 0.172020
						CHANNELS 3 Zrotation Yrotation Xrotation
						JOINT Head
						{
							OFFSET 0.104070 1.761360 -0.123970
							CHANNELS 3 Zrotation Yrotation Xrotation
							End Site
							{
								OFFSET 0.000000 0.000000 0.000000
							}
						}
					}
				}
				JOINT LeftShoulder
				{
					OFFSET 0.000000 0.000000 0.000000
					CHANNELS 3 Zrotation Yrotation Xrotation
					JOINT LeftArm
					{
						OFFSET 3.362410 1.200890 -0.311210
						CHANNELS 3 Zrotation Yrotation Xrotation
						JOINT LeftForeArm
						{
							OFFSET 4.983000 -0.000000 -0.000000
							CHANNELS 3 Zrotation Yrotation Xrotation
							JOINT LeftHand
							{
								OFFSET 3.483560 -0.000000 -0.000000
								CHANNELS 3 Zrotation Yrotation Xrotation
								JOINT LeftFingerBase
								{
									OFFSET 0.000000 0.000000 0.000000
									CHANNELS 3 Zrotation Yrotation Xrotation
									JOINT LeftHandIndex1
									{
										OFFSET 0.715260 -0.000000 -0.000000
										CHANNELS 3 Zrotation Yrotation Xrotation
										End Site
										{
											OFFSET 0.000000 0.000000 0.000000
										}
									}
								}
								JOINT LThumb
								{
									OFFSET 0.000000 0.000000 0.000000
									CHANNELS 3 Zrotation Yrotation Xrotation
									End Site
									{
										OFFSET 0.000000 0.000000 0.000000
									}
								}
							}
						}
					}
				}
				JOINT RightShoulder
				{
					OFFSET 0.000000 0.000000 0.000000
					CHANNELS 3 Zrotation Yrotation Xrotation
					JOINT RightArm
					{
						OFFSET -3.136600 1.374050 -0.404650
						CHANNELS 3 Zrotation Yrotation Xrotation
						JOINT RightForeArm
						{
							OFFSET -5.241900 -0.000000 -0.000000
							CHANNELS 3 Zrotation Yrotation Xrotation
							JOINT RightHand
							{
								OFFSET -3.444170 -0.000000 -0.000000
								CHANNELS 3 Zrotation Yrotation Xrotation
								JOINT RightFingerBase
								{
									OFFSET 0.000000 0.000000 0.000000
									CHANNELS 3 Zrotation Yrotation Xrotation
									JOINT RightHandIndex1
									{
										OFFSET -0.622530 -0.000000 -0.000000
										CHANNELS 3 Zrotation Yrotation Xrotation
										End Site
										{
											OFFSET 0.000000 0.000000 0.000000
										}
									}
								}
								JOINT RThumb
								{
									OFFSET 0.000000 0.000000 0.000000
									CHANNELS 3 Zrotation Yrotation Xrotation
									End Site
									{
										OFFSET 0.000000 0.000000 0.000000
									}
								}
							}
						}
					}
				}
			}
		}
	}
}
MOTION
Frames: 7
Frame Time: 0.008333
-20.721693 16.823160 -0.592968 113.930077 87.462809 134.306317 -7.308280 1.879958 7.922841 -11.584302 -14.937809 -46.537803 -2.958803 -0.368703 18.010665 0.668795 1.954418 -5.512582 0.395000 -0.000000 -22.034700 11.409838 -4.821324 1.004108 6.255336 -9.883327 1.178218 1.049061 -1.071238 15.155129 0.215339 4.582195 18.689708 1.764200 0.000000 -83.511500 -5.664112 2.033569 -10.133690 -2.459482 2.270949 -4.872754 -7.025102 2.222044 1.147769 11.573768 -6.315506 -9.230759 -3.559111 -0.269568 -0.435150 0.000000 0.000000 0.000000 -1.059236 21.167009 2.340896 -56.161694 18.123473 -19.004498 -2.932122 -43.798874 0.012570 9.674418 -0.949769 -0.076621 -0.161794 -0.048549 -0.000000 0.000000 0.000000 0.000000 0.000000 0.000000 0.000000 17.512922 2.865714 -0.400667 76.519406 22.272837 40.171866 1.177103 71.029475 0.028277 3.166073 7.136407 0.211239 0.005096 -0.438182 -0.000000 0.000000 0.000000 0.000000 0.000000 0.000000 0.000000 
-20.509552 16.846640 -0.593435 112.560288 87.121216 132.644065 -7.246876 1.957917 7.869568 -12.126878 -15.054161 -45.542936 -2.953908 -0.312663 18.614823 0.727604 2.189513 -5.896626 0.370799 0.000000 -22.031300 11.657156 -4.810707 0.890044 5.423632 -10.676492 0.358794 0.744488 -1.275820 17.554750 0.074259 5.259126 21.645847 2.401400 -0.000000 -84.495800 -6.007507 1.942506 -10.010112 -2.534783 2.224924 -4.858354 -7.068700 2.175778 1.091252 11.625322 -6.356260 -9.223010 -3.587261 -0.271754 -0.435353 0.000000 0.000000 0.000000 -0.946850 21.023852 2.315990 -55.829333 17.713862 -18.766325 -2.927832 -43.985522 0.012229 9.691454 -0.957874 -0.077709 -0.162956 -0.046050 -0.000000 0.000000 0.000000 0.000000 0.000000 0.000000 0.000000 17.747389 2.776314 -0.442777 76.953013 21.451465 39.617685 1.220483 69.933903 0.026899 2.982322 7.235769 0.201437 0.006878 -0.434114 -0.000000 0.000000 0.000000 0.000000 0.000000 0.000000 0.000000 
-20.299154 16.868054 -0.595998 111.759593 86.778428 131.548278 -7.207180 2.033290 7.806337 -12.695800 -15.084993 -44.542932 -2.959514 -0.259169 19.166494 0.771749 2.348027 -6.270366 0.338699 0.000000 -22.016500 11.879011 -4.759599 0.774946 4.641149 -11.480825 -0.557013 0.449171 -1.438704 20.094973 -0.110438 5.788277 24.529823 3.022300 0.000000 -84.300200 -6.315069 1.844970 -9.872386 -2.599786 2.168005 -4.839059 -7.103492 2.118317 1.041758 11.661393 -6.404963 -9.216493 -3.616090 -0.273931 -0.435724 0.000000 0.000000 0.000000 -0.848058 20.861567 2.288112 -55.584535 17.263003 -18.519772 -2.921454 -44.168703 0.011841 9.704875 -0.966652 -0.078797 -0.163834 -0.043323 -0.000000 0.000000 0.000000 0.000000 0.000000 0.000000 0.000000 17.973452 2.664627 -0.480196 77.338897 20.640990 39.006597 1.262509 68.785754 0.025456 2.797102 7.306432 0.190528 0.008675 -0.428547 -0.000000 0.000000 0.000000 0.000000 0.000000 0.000000 0.000000 
-20.090810 16.887211 -0.600419 111.375563 86.434779 130.867563 -7.185668 2.106924 7.734250 -13.284326 -15.037978 -43.528225 -2.974919 -0.210144 19.651522 0.802306 2.438147 -6.627347 0.301600 0.000000 -21.947199 12.074032 -4.666926 0.656994 3.913736 -12.286958 -1.561062 0.176880 -1.561110 22.767823 -0.328054 6.067536 27.201125 3.527800 -0.000000 -82.806600 -6.588761 1.740393 -9.719172 -2.654910 2.099674 -4.814480 -7.129848 2.049216 0.999710 11.685643 -6.465255 -9.212666 -3.645582 -0.276081 -0.436705 0.000000 0.000000 0.000000 -0.760145 20.677514 2.257942 -55.429338 16.772551 -18.258554 -2.912722 -44.351569 0.011406 9.717200 -0.975684 -0.079887 -0.164407 -0.040352 -0.000000 0.000000 0.000000 0.000000 0.000000 0.000000 0.000000 18.194888 2.527384 -0.511041 77.674578 19.851171 38.340513 1.303501 67.592343 0.024020 2.620596 7.344547 0.179111 0.010379 -0.421527 -0.000000 0.000000 0.000000 0.000000 0.000000 0.000000 0.000000 
-19.884909 16.904077 -0.607013 111.383443 86.105152 130.585406 -7.185178 2.178109 7.654629 -13.869216 -14.907528 -42.511471 -2.997372 -0.165929 20.074595 0.818859 2.455248 -6.970336 0.260500 -0.000000 -21.782500 12.234120 -4.539525 0.540151 3.274206 -13.061498 -2.651745 -0.060587 -1.650688 25.558573 -0.564733 5.971266 29.507245 3.791800 0.000000 -80.018501 -6.812013 1.630957 -9.557737 -2.696773 2.020192 -4.785856 -7.148275 1.968729 0.965357 11.698136 -6.538505 -9.213237 -3.675305 -0.278170 -0.438589 0.000000 0.000000 0.000000 -0.689855 20.473949 2.224982 -55.360422 16.246015 -17.971987 -2.901371 -44.538222 0.010934 9.733120 -0.984526 -0.081077 -0.164685 -0.037190 -0.000000 0.000000 0.000000 0.000000 0.000000 0.000000 0.000000 18.407798 2.364457 -0.534651 77.958463 19.083592 37.617690 1.343855 66.361827 0.022655 2.461902 7.348665 0.168088 0.011890 -0.413108 0.000000 0.000000 0.000000 0.000000 0.000000 0.000000 0.000000 
-19.681266 16.918783 -0.615765 111.705943 85.797393 130.629946 -7.204670 2.246519 7.569793 -14.433755 -14.700450 -41.495350 -3.024742 -0.127949 20.432723 0.822937 2.405715 -7.302370 0.216999 0.000000 -21.484800 12.357424 -4.386532 0.424863 2.736459 -13.786460 -3.830686 -0.258164 -1.720480 28.454375 -0.806219 5.409392 31.300087 3.710000 0.000000 -76.102300 -6.978445 1.517209 -9.392732 -2.724186 1.929418 -4.754076 -7.159826 1.876728 0.938554 11.701359 -6.626328 -9.219594 -3.705140 -0.280191 -0.441692 0.000000 0.000000 0.000000 -0.641537 20.252289 2.189053 -55.371756 15.686306 -17.649443 -2.887204 -44.732119 0.010434 9.757835 -0.992424 -0.082265 -0.164667 -0.033885 -0.000000 0.000000 0.000000 0.000000 0.000000 0.000000 0.000000 18.613014 2.175286 -0.550393 78.190782 18.338922 36.836813 1.384049 65.101943 0.021393 2.324904 7.318850 0.157860 0.013197 -0.403420 0.000000 0.000000 0.000000 0.000000 0.000000 0.000000 0.000000 
-19.480216 16.931604 -0.626552 112.256050 85.516868 130.919946 -7.241786 2.311725 7.482724 -14.963686 -14.429158 -40.481476 -3.055131 -0.097878 20.721605 0.816959 2.300525 -7.627662 0.172800 0.000001 -21.027800 12.445117 -4.218253 0.312143 2.306792 -14.444033 -5.101302 -0.417753 -1.785235 31.436543 -1.041237 4.343137 32.456686 3.228300 -0.000000 -71.394000 -7.085349 1.399460 -9.229995 -2.736825 1.827479 -4.720381 -7.165790 1.773335 0.918851 11.698481 -6.729521 -9.232613 -3.735067 -0.282149 -0.446207 0.000000 0.000000 0.000000 -0.619654 20.014298 2.149879 -55.454766 15.097804 -17.280810 -2.870066 -44.936556 0.009915 9.796637 -0.998537 -0.083354 -0.164361 -0.030495 -0.000000 0.000000 0.000000 0.000000 0.000000 0.000000 0.000000 18.812662 1.960318 -0.557929 78.372786 17.615883 35.995874 1.424625 63.819206 0.020243 2.208664 7.257520 0.148528 0.014365 -0.392649 0.000000 0.000000 0.000000 0.000000 0.000000 0.000000 0.000000 
